# xmcd
# 
# Track frame offsets:
#     150
#     29562
#     56716
#     87073
#     116649
#     147303
#     166737
#     209495
#     234566
#     267213
#     283786
#     306216
# 
# Disc length: 4506
# 
# Revision: 3
# Processed by: cddbd v1.5.2PL0 Copyright (c) Steve Scherf et al.
# Submitted via: fre:ac v1.0.17
# 
DISCID=ae11980c
DTITLE=Robert Cray - Cookin' in Mobile
DYEAR=2010
DGENRE=Blues
TTITLE0=Our Last Time
TTITLE1=Anytime
TTITLE2=Love 2009
TTITLE3=Right Next Door
TTITLE4=Chicken in the Kitchen
TTITLE5=Sitting on Top of the World
TTITLE6=One in the Middle
TTITLE7=Lotta Lovin'
TTITLE8=Smoking Gun
TTITLE9=I Can't Fail
TTITLE10=That's What Keeps Me Rockin'
TTITLE11=Time Makes Two
EXTD=
EXTT0=
EXTT1=
EXTT2=
EXTT3=
EXTT4=
EXTT5=
EXTT6=
EXTT7=
EXTT8=
EXTT9=
EXTT10=
EXTT11=
PLAYORDER=
